<svg width="30" height="35" viewBox="0 0 30 35" fill="none" xmlns="http://www.w3.org/2000/svg">
<g clip-path="url(#clip0_0_16)">
<path fill-rule="evenodd" clip-rule="evenodd" d="M22.1 19.1242C24.2776 19.1242 26.2503 20.0135 27.6803 21.4496C29.115 22.8851 30 24.8709 30 27.0617C30 29.2533 29.115 31.239 27.6857 32.6745L27.5959 32.7579C26.1728 34.1449 24.2347 35 22.1 35C19.919 35 17.9435 34.1107 16.515 32.6745C15.0857 31.239 14.2007 29.2533 14.2007 27.0617C14.2007 24.8702 15.0857 22.8851 16.515 21.4496C17.9435 20.0135 19.919 19.1242 22.1 19.1242ZM16.5381 2.60302V6.30659C16.6054 7.19044 16.9122 7.88495 17.451 8.34704C18.0088 8.82622 18.8429 9.09486 19.9469 9.11468L22.5265 9.11195L16.5381 2.60302ZM22.7429 10.8393L19.9333 10.8366C18.4034 10.8127 17.198 10.3991 16.3347 9.65812C15.4347 8.885 14.9279 7.78856 14.8252 6.42963L14.8177 6.31069V1.72874H4.27687C3.57347 1.72874 2.93333 2.01789 2.47075 2.48272C2.00816 2.94754 1.72041 3.59078 1.72041 4.29759V27.2989C1.72041 28.003 2.00952 28.6462 2.47279 29.1118C2.93537 29.5766 3.57619 29.8671 4.27687 29.8671H12.4C12.5728 30.4679 12.7993 31.0462 13.0748 31.5958H4.27687C3.10136 31.5958 2.03061 31.1119 1.25578 30.334C0.481633 29.5554 0 28.4801 0 27.2989V4.29759C0 3.11775 0.481633 2.04318 1.2551 1.26528C2.03333 0.483965 3.10272 0 4.27687 0H16.1054C16.385 0 16.6333 0.133979 16.7905 0.341783L24.232 8.43112C24.3844 8.59722 24.4592 8.80639 24.4592 9.01556L24.4612 17.1992C23.9048 17.0646 23.3306 16.9771 22.7429 16.9402V10.8393ZM7.11293 14.5641C6.6381 14.5641 6.25306 14.1772 6.25306 13.7C6.25306 13.2222 6.6381 12.8353 7.11293 12.8353H17.3503C17.8252 12.8353 18.2109 13.2222 18.2109 13.7C18.2109 14.1772 17.8252 14.5641 17.3503 14.5641H7.11293ZM7.11293 19.5063C6.6381 19.5063 6.25306 19.1194 6.25306 18.6416C6.25306 18.1644 6.6381 17.7775 7.11293 17.7775H16.8082C17.0605 17.7775 17.2878 17.8869 17.4456 18.0612C16.6958 18.454 15.9979 18.9394 15.368 19.5063H7.11293ZM7.11293 24.4485C6.6381 24.4485 6.25306 24.0616 6.25306 23.5837C6.25306 23.1066 6.6381 22.7197 7.11293 22.7197H12.9769C12.717 23.27 12.5041 23.8483 12.3449 24.4485H7.11293ZM21.749 22.8845C22.2428 22.8846 22.7317 22.9826 23.1878 23.1729C23.651 23.3643 24.068 23.6466 24.4143 23.9953C24.7619 24.3432 25.0422 24.7608 25.2333 25.2236C25.417 25.672 25.5197 26.1628 25.5197 26.6755C25.5197 27.0487 25.4653 27.4131 25.3626 27.7576C25.2794 28.0395 25.1631 28.3105 25.0163 28.5649L26.1524 29.8206C26.2537 29.932 26.2463 30.107 26.1354 30.2096L25.0912 31.1679C25.0376 31.2168 24.9669 31.2425 24.8946 31.2394C24.8223 31.2364 24.7541 31.2048 24.7048 31.1515L23.6367 29.9546C23.3856 30.101 23.1186 30.2177 22.8408 30.3025L22.8306 30.3053C22.4797 30.4108 22.1153 30.4644 21.749 30.4645C21.2429 30.4645 20.7544 30.3606 20.3088 30.1767C19.8508 29.9855 19.4342 29.7064 19.0823 29.3551C18.7314 29.0031 18.4531 28.585 18.2633 28.1247C18.074 27.6652 17.9767 27.1728 17.9769 26.6755C17.9769 26.1663 18.0796 25.6761 18.2633 25.2277C18.4534 24.7672 18.7314 24.3485 19.0816 23.9953C19.4286 23.6466 19.8435 23.3643 20.3048 23.1729C20.7625 22.982 21.2534 22.884 21.749 22.8845ZM23.4143 25.0008C23.1948 24.7803 22.9346 24.605 22.6483 24.4847L22.6354 24.4792C22.3538 24.3648 22.0527 24.3063 21.749 24.307C21.4279 24.307 21.1231 24.3712 20.8483 24.484C20.5621 24.6048 20.3019 24.7803 20.0823 25.0008C19.8631 25.2205 19.6893 25.4815 19.5708 25.7689C19.4523 26.0563 19.3915 26.3644 19.3918 26.6755C19.3918 26.9975 19.4565 27.3044 19.568 27.5799C19.6898 27.869 19.8653 28.1315 20.0816 28.3489C20.3007 28.5676 20.5599 28.746 20.8469 28.8636C21.1238 28.9785 21.4286 29.0427 21.749 29.0427C22.0694 29.0427 22.3742 28.9785 22.649 28.8636C22.9361 28.7454 23.1973 28.5663 23.4143 28.3489C23.6306 28.1315 23.8088 27.869 23.9265 27.5799C24.0408 27.3037 24.1054 26.9968 24.1054 26.6755C24.1054 26.3529 24.0408 26.0466 23.9265 25.7698L23.9218 25.7561C23.8034 25.4738 23.6293 25.2168 23.4143 25.0008Z" fill="black"/>
</g>
<defs>
<clipPath id="clip0_0_16">
<rect width="30" height="35" fill="white"/>
</clipPath>
</defs>
</svg>
