<svg width="30" height="31" viewBox="0 0 30 31" fill="none" xmlns="http://www.w3.org/2000/svg">
<g clip-path="url(#clip0_0_21)">
<path fill-rule="evenodd" clip-rule="evenodd" d="M7.67155 0.0125314H29.1856V26.0098C29.1479 26.6456 28.3284 26.6607 27.4411 26.6204H7.36992C5.35903 26.8045 6.07541 29.4913 7.36992 29.35H28.2581V28.4242H30V29.9933C30 30.261 29.8941 30.5176 29.7055 30.7069C29.517 30.8961 29.2612 31.0024 28.9946 31.0024H7.4579C4.44156 31.0453 3.44868 30.8839 3.44868 28.6689V25.4599H1.14621C0.502723 25.4599 0 24.8721 0 24.1506C0 23.429 0.502723 22.8412 1.14621 22.8412H3.44868V20.7524H1.14621C0.502723 20.7524 0 20.1671 0 19.443C0 18.719 0.502723 18.1362 1.14621 18.1362H3.44868V16.0448H1.14621C0.502723 16.0448 0 15.4596 0 14.738C0 14.0165 0.502723 13.4287 1.14621 13.4287H3.44868V11.3525H1.14621C0.502723 11.3525 0 10.7546 0 10.0305C0 9.30648 0.502723 8.72119 1.14621 8.72119H3.44868V6.63232H1.14621C0.502723 6.63232 0 6.05461 0 5.32552C0 4.59643 0.502723 4.01619 1.14621 4.01619H3.44868C3.44365 0.668456 3.40092 -0.118653 7.67155 0.0125314ZM11.7109 10.5729C11.5576 10.5729 11.4106 10.5118 11.3021 10.403C11.1937 10.2942 11.1328 10.1466 11.1328 9.99267C11.1328 9.83879 11.1937 9.6912 11.3021 9.58238C11.4106 9.47357 11.5576 9.41243 11.7109 9.41243H20.2095C20.3628 9.41243 20.5098 9.47357 20.6183 9.58238C20.7267 9.6912 20.7876 9.83879 20.7876 9.99267C20.7876 10.1466 20.7267 10.2942 20.6183 10.403C20.5098 10.5118 20.3628 10.5729 20.2095 10.5729H11.7109ZM11.7109 7.5153C11.5639 7.50557 11.426 7.44008 11.3253 7.33209C11.2245 7.22411 11.1685 7.08172 11.1685 6.9338C11.1685 6.78587 11.2245 6.64348 11.3253 6.5355C11.426 6.42752 11.5639 6.36202 11.7109 6.35229H21.7352C21.8145 6.34705 21.8941 6.3582 21.9689 6.38505C22.0437 6.4119 22.1123 6.45388 22.1703 6.50839C22.2283 6.5629 22.2745 6.62878 22.3061 6.70196C22.3377 6.77513 22.3541 6.85404 22.3541 6.9338C22.3541 7.01355 22.3377 7.09246 22.3061 7.16564C22.2745 7.23881 22.2283 7.30469 22.1703 7.35921C22.1123 7.41372 22.0437 7.4557 21.9689 7.48255C21.8941 7.5094 21.8145 7.52054 21.7352 7.5153H11.7109ZM10.2279 3.7841H23.2208C23.4424 3.78542 23.6545 3.87436 23.8112 4.03162C23.9679 4.18888 24.0565 4.40179 24.0578 4.62419V12.3136C24.0559 12.5361 23.9671 12.7489 23.8106 12.9064C23.6542 13.0639 23.4424 13.1536 23.2208 13.1562H10.2279C10.0059 13.1549 9.79337 13.0656 9.63661 12.9078C9.47985 12.75 9.39153 12.5365 9.39087 12.3136V4.61157C9.39481 4.39117 9.48466 4.18109 9.64114 4.0264C9.79762 3.87171 10.0083 3.78472 10.2279 3.7841Z" fill="black"/>
</g>
<defs>
<clipPath id="clip0_0_21">
<rect width="30" height="31" fill="white"/>
</clipPath>
</defs>
</svg>
