<svg width="20" height="20" viewBox="0 0 20 20" fill="none" xmlns="http://www.w3.org/2000/svg">
<path d="M5.83325 11.6667C5.83325 11.2064 6.20635 10.8333 6.66659 10.8333C7.12683 10.8333 7.49992 11.2064 7.49992 11.6667C7.49992 12.1269 7.12683 12.5 6.66659 12.5C6.20635 12.5 5.83325 12.1269 5.83325 11.6667Z" fill="#000066"/>
<path d="M6.66659 14.1667C6.20635 14.1667 5.83325 14.5398 5.83325 15C5.83325 15.4603 6.20635 15.8333 6.66659 15.8333C7.12683 15.8333 7.49992 15.4603 7.49992 15C7.49992 14.5398 7.12683 14.1667 6.66659 14.1667Z" fill="#000066"/>
<path d="M9.16675 11.6667C9.16675 11.2064 9.53983 10.8333 10.0001 10.8333C10.4603 10.8333 10.8334 11.2064 10.8334 11.6667C10.8334 12.1269 10.4603 12.5 10.0001 12.5C9.53983 12.5 9.16675 12.1269 9.16675 11.6667Z" fill="#000066"/>
<path d="M10.0001 14.1667C9.53983 14.1667 9.16675 14.5398 9.16675 15C9.16675 15.4603 9.53983 15.8333 10.0001 15.8333C10.4603 15.8333 10.8334 15.4603 10.8334 15C10.8334 14.5398 10.4603 14.1667 10.0001 14.1667Z" fill="#000066"/>
<path d="M12.5 11.6667C12.5 11.2064 12.8731 10.8333 13.3333 10.8333C13.7936 10.8333 14.1667 11.2064 14.1667 11.6667C14.1667 12.1269 13.7936 12.5 13.3333 12.5C12.8731 12.5 12.5 12.1269 12.5 11.6667Z" fill="#000066"/>
<path d="M13.3333 14.1667C12.8731 14.1667 12.5 14.5398 12.5 15C12.5 15.4603 12.8731 15.8333 13.3333 15.8333C13.7936 15.8333 14.1667 15.4603 14.1667 15C14.1667 14.5398 13.7936 14.1667 13.3333 14.1667Z" fill="#000066"/>
<path fill-rule="evenodd" clip-rule="evenodd" d="M5.00008 1.66667C5.00008 1.20643 5.37318 0.833332 5.83341 0.833332C6.29365 0.833332 6.66675 1.20643 6.66675 1.66667V2.5H13.3334V1.66667C13.3334 1.20643 13.7065 0.833332 14.1667 0.833332C14.627 0.833332 15.0001 1.20643 15.0001 1.66667V2.5H15.8334C17.2142 2.5 18.3334 3.61929 18.3334 5V16.6667C18.3334 18.0474 17.2142 19.1667 15.8334 19.1667H4.16675C2.78604 19.1667 1.66675 18.0474 1.66675 16.6667V5C1.66675 3.61929 2.78604 2.5 4.16675 2.5H5.00008V1.66667ZM13.3334 4.16667V5C13.3334 5.46023 13.7065 5.83333 14.1667 5.83333C14.627 5.83333 15.0001 5.46023 15.0001 5V4.16667H15.8334C16.2937 4.16667 16.6667 4.53977 16.6667 5V7.5H3.33341V5C3.33341 4.53977 3.70651 4.16667 4.16675 4.16667H5.00008V5C5.00008 5.46023 5.37318 5.83333 5.83341 5.83333C6.29365 5.83333 6.66675 5.46023 6.66675 5V4.16667H13.3334ZM3.33341 9.16666V16.6667C3.33341 17.1269 3.70651 17.5 4.16675 17.5H15.8334C16.2937 17.5 16.6667 17.1269 16.6667 16.6667V9.16666H3.33341Z" fill="#000066"/>
</svg>
