<svg width="83" height="103" viewBox="0 0 83 103" fill="none" xmlns="http://www.w3.org/2000/svg">
<path fill-rule="evenodd" clip-rule="evenodd" d="M43.2767 2.71578C50.3343 -2.20761 50.8619 7.53921 57.7875 1.44953V11.388C51.1835 17.3943 49.7571 7.68916 43.2767 12.6209V2.71578ZM83 102.342V44.169H61.1349V30.0819L42.2791 17.8025V2.53251H42.2132C42.6089 2.29925 42.8728 1.85773 42.8728 1.35789C42.8728 0.608135 42.2709 0 41.5289 0C40.7868 0 40.185 0.608135 40.185 1.35789C40.185 1.85773 40.4488 2.29092 40.8445 2.53251H40.7786V17.7775L21.8816 30.0819V44.169H0V102.367C27.6694 102.367 55.3306 102.342 83 102.342ZM40.0778 35.5301C40.0778 34.9303 40.5642 34.4388 41.1578 34.4388C41.7515 34.4388 42.2379 34.9303 42.2379 35.5301V39.7537H45.3379C45.9316 39.7537 46.418 40.2452 46.418 40.845C46.418 41.4448 45.9316 41.9363 45.3379 41.9363H41.1578C40.5642 41.9363 40.0778 41.4448 40.0778 40.845V35.5301ZM41.4959 32.1645C45.5605 32.1645 48.8584 35.4968 48.8584 39.6038C48.8584 43.7108 45.5605 47.043 41.4959 47.043C37.4312 47.043 34.1333 43.7108 34.1333 39.6038C34.1416 35.4968 37.4312 32.1645 41.4959 32.1645ZM30.1841 60.4553H52.8077V64.7539H30.1841V60.4553ZM30.1841 69.9522H52.8077V74.2508H30.1841V69.9522ZM30.1841 79.4575H52.8077V83.7561H30.1841V79.4575ZM30.1841 88.9544H52.8077V93.253H30.1841V88.9544ZM8.91259 60.4553H19.8534V64.7539H8.91259V60.4553ZM63.1384 60.4553H74.0792V64.7539H63.1384V60.4553ZM8.91259 69.9522H19.8534V74.2508H8.91259V69.9522ZM63.1384 69.9522H74.0792V74.2508H63.1384V69.9522ZM8.91259 79.4575H19.8534V83.7561H8.91259V79.4575ZM63.1384 79.4575H74.0792V83.7561H63.1384V79.4575ZM8.91259 88.9544H19.8534V93.253H8.91259V88.9544ZM63.1384 88.9544H74.0792V93.253H63.1384V88.9544Z" fill="white"/>
</svg>
