<svg width="30" height="37" viewBox="0 0 30 37" fill="none" xmlns="http://www.w3.org/2000/svg">
<path fill-rule="evenodd" clip-rule="evenodd" d="M15.6422 0.981608C18.1931 -0.797933 18.3838 2.72502 20.8871 0.523926V4.11613C18.5 6.28711 17.9845 2.77922 15.6422 4.56177V0.981608ZM30 36.991V15.9647H22.097V10.873L15.2816 6.43465V0.915365H15.2578C15.4008 0.831055 15.4962 0.671468 15.4962 0.490804C15.4962 0.219808 15.2786 0 15.0104 0C14.7422 0 14.5247 0.219808 14.5247 0.490804C14.5247 0.671468 14.62 0.828044 14.7631 0.915365H14.7392V6.42562L7.90901 10.873V15.9647H0V37C10.001 37 19.999 36.991 30 36.991ZM14.4859 12.8422C14.4859 12.6254 14.6618 12.4478 14.8763 12.4478C15.0909 12.4478 15.2667 12.6254 15.2667 12.8422V14.3688H16.3872C16.6018 14.3688 16.7776 14.5465 16.7776 14.7633C16.7776 14.9801 16.6018 15.1577 16.3872 15.1577H14.8763C14.6618 15.1577 14.4859 14.9801 14.4859 14.7633V12.8422ZM14.9985 11.6257C16.4677 11.6257 17.6597 12.8302 17.6597 14.3146C17.6597 15.7991 16.4677 17.0035 14.9985 17.0035C13.5294 17.0035 12.3373 15.7991 12.3373 14.3146C12.3403 12.8302 13.5294 11.6257 14.9985 11.6257ZM10.9099 21.8513H19.0871V23.405H10.9099V21.8513ZM10.9099 25.2839H19.0871V26.8376H10.9099V25.2839ZM10.9099 28.7196H19.0871V30.2733H10.9099V28.7196ZM10.9099 32.1522H19.0871V33.7059H10.9099V32.1522ZM3.22142 21.8513H7.17592V23.405H3.22142V21.8513ZM22.8211 21.8513H26.7756V23.405H22.8211V21.8513ZM3.22142 25.2839H7.17592V26.8376H3.22142V25.2839ZM22.8211 25.2839H26.7756V26.8376H22.8211V25.2839ZM3.22142 28.7196H7.17592V30.2733H3.22142V28.7196ZM22.8211 28.7196H26.7756V30.2733H22.8211V28.7196ZM3.22142 32.1522H7.17592V33.7059H3.22142V32.1522ZM22.8211 32.1522H26.7756V33.7059H22.8211V32.1522Z" fill="black"/>
</svg>
