<svg width="100" height="92" viewBox="0 0 100 92" fill="none" xmlns="http://www.w3.org/2000/svg">
<g clip-path="url(#clip0_243_11016)">
<path fill-rule="evenodd" clip-rule="evenodd" d="M0 81.4369H11.9792V1.27766C11.9792 0.577797 12.557 0 13.2568 0H53.833C54.5329 0 55.1107 0.577797 55.1107 1.27766V31.3313H91.0156C91.7155 31.3313 92.2933 31.9091 92.2933 32.6089V81.4287H100V92H0V81.4369ZM22.2331 12.0605H30.5339C30.7861 12.0605 30.9977 12.2721 30.9977 12.5244V22.5829C30.9977 22.8352 30.7861 23.0468 30.5339 23.0468H22.2331C21.9808 23.0468 21.7692 22.8352 21.7692 22.5829V12.5244C21.7692 12.2721 21.9808 12.0605 22.2331 12.0605ZM36.2956 62.0929H44.5964C44.8486 62.0929 45.0602 62.3045 45.0602 62.5567V72.6153C45.0602 72.8676 44.8486 73.0792 44.5964 73.0792H36.2956C36.0433 73.0792 35.8317 72.8676 35.8317 72.6153V62.5567C35.8317 62.2963 36.0433 62.0929 36.2956 62.0929ZM22.2331 62.0929H30.5339C30.7861 62.0929 30.9977 62.3045 30.9977 62.5567V72.6153C30.9977 72.8676 30.7861 73.0792 30.5339 73.0792H22.2331C21.9808 73.0792 21.7692 72.8676 21.7692 72.6153V62.5567C21.7692 62.2963 21.9808 62.0929 22.2331 62.0929ZM36.2956 45.41H44.5964C44.8486 45.41 45.0602 45.6216 45.0602 45.8739V55.9324C45.0602 56.1847 44.8486 56.3963 44.5964 56.3963H36.2956C36.0433 56.3963 35.8317 56.1847 35.8317 55.9324V45.882C35.8317 45.6216 36.0433 45.41 36.2956 45.41ZM22.2331 45.41H30.5339C30.7861 45.41 30.9977 45.6216 30.9977 45.8739V55.9324C30.9977 56.1847 30.7861 56.3963 30.5339 56.3963H22.2331C21.9808 56.3963 21.7692 56.1847 21.7692 55.9324V45.882C21.7692 45.6216 21.9808 45.41 22.2331 45.41ZM36.2956 28.7353H44.5964C44.8486 28.7353 45.0602 28.9468 45.0602 29.1991V39.2577C45.0602 39.51 44.8486 39.7215 44.5964 39.7215H36.2956C36.0433 39.7215 35.8317 39.51 35.8317 39.2577V29.1991C35.8317 28.9468 36.0433 28.7353 36.2956 28.7353ZM22.2331 28.7353H30.5339C30.7861 28.7353 30.9977 28.9468 30.9977 29.1991V39.2577C30.9977 39.51 30.7861 39.7215 30.5339 39.7215H22.2331C21.9808 39.7215 21.7692 39.51 21.7692 39.2577V29.1991C21.7692 28.9468 21.9808 28.7353 22.2331 28.7353ZM36.2956 12.0605H44.5964C44.8486 12.0605 45.0602 12.2721 45.0602 12.5244V22.5829C45.0602 22.8352 44.8486 23.0468 44.5964 23.0468H36.2956C36.0433 23.0468 35.8317 22.8352 35.8317 22.5829V12.5244C35.8317 12.2721 36.0433 12.0605 36.2956 12.0605ZM18.8558 5.95701H48.0876C48.5921 5.95701 49.0072 6.45343 49.0072 7.05564V76.9366C49.0072 77.5388 48.5921 78.0352 48.0876 78.0352H18.8558C18.3512 78.0352 17.9362 77.5388 17.9362 76.9366V7.05564C17.9362 6.45343 18.3512 5.95701 18.8558 5.95701ZM59.0902 43.4813H67.391C67.6432 43.4813 67.8548 43.6929 67.8548 43.9452V54.0037C67.8548 54.256 67.6432 54.4676 67.391 54.4676H59.0902C58.8379 54.4676 58.6263 54.256 58.6263 54.0037V43.9452C58.6263 43.6929 58.8379 43.4813 59.0902 43.4813ZM73.1527 62.0929H81.4535C81.7057 62.0929 81.9173 62.3045 81.9173 62.5567V72.6153C81.9173 72.8676 81.7057 73.0792 81.4535 73.0792H73.1527C72.9004 73.0792 72.6888 72.8676 72.6888 72.6153V62.5567C72.6888 62.2963 72.9004 62.0929 73.1527 62.0929ZM59.0902 62.0929H67.391C67.6432 62.0929 67.8548 62.3045 67.8548 62.5567V72.6153C67.8548 72.8676 67.6432 73.0792 67.391 73.0792H59.0902C58.8379 73.0792 58.6263 72.8676 58.6263 72.6153V62.5567C58.6263 62.2963 58.8379 62.0929 59.0902 62.0929ZM73.1527 43.4813H81.4535C81.7057 43.4813 81.9173 43.6929 81.9173 43.9452V54.0037C81.9173 54.256 81.7057 54.4676 81.4535 54.4676H73.1527C72.9004 54.4676 72.6888 54.256 72.6888 54.0037V43.9452C72.6888 43.6929 72.9004 43.4813 73.1527 43.4813ZM56.0384 37.2883H85.2702C85.7747 37.2883 86.1898 37.7847 86.1898 38.3869V76.9366C86.1898 77.5388 85.7747 78.0352 85.2702 78.0352H56.0384C55.5339 78.0352 55.1188 77.5388 55.1188 76.9366V38.3869C55.1188 37.7847 55.5339 37.2883 56.0384 37.2883Z" fill="white"/>
</g>
<defs>
<clipPath id="clip0_243_11016">
<rect width="100" height="92" fill="white"/>
</clipPath>
</defs>
</svg>
