<svg width="51" height="51" viewBox="0 0 51 51" fill="none" xmlns="http://www.w3.org/2000/svg">
<path d="M38.9059 8.6698H12.5854V42.4808H38.9059V8.6698Z" fill="white"/>
<path fill-rule="evenodd" clip-rule="evenodd" d="M25.1136 0C25.9641 0 27.3204 0.0685358 28.1364 0.159917C28.941 0.251298 30.1018 0.43406 30.711 0.571132C31.3317 0.696781 32.458 1.01661 33.2166 1.26791C33.9752 1.50779 35.3774 2.09034 36.3199 2.54725C37.2739 3.00415 38.5842 3.7352 39.2508 4.18069C39.9174 4.61475 40.9289 5.35722 41.492 5.83697C42.0552 6.3053 42.9977 7.17342 43.5609 7.76739C44.1241 8.36137 44.9057 9.25234 45.2964 9.75493C45.6872 10.2575 46.2849 11.1028 46.6412 11.6397C46.986 12.1765 47.6411 13.3531 48.0894 14.2669C48.5262 15.1807 49.1008 16.54 49.3537 17.2939C49.5951 18.0478 49.9054 19.1786 50.0318 19.8069C50.1697 20.4351 50.3421 21.3375 50.4226 21.8058C50.5146 22.3427 50.572 23.622 50.572 25.2326C50.572 26.7861 50.5146 28.1797 50.4226 28.7736C50.3421 29.3105 50.1353 30.3043 49.9858 31.001C49.8249 31.6978 49.5146 32.7944 49.2962 33.4569C49.0664 34.1194 48.5032 35.433 48.0434 36.3697C47.5837 37.3178 46.8481 38.6199 46.3998 39.2825C45.9631 39.945 45.1815 40.973 44.6758 41.567C44.1816 42.161 43.308 43.0862 42.7449 43.6116C42.1817 44.1371 41.2507 44.9367 40.6875 45.3707C40.1243 45.8048 39.2163 46.433 38.6761 46.7643C38.1359 47.0955 37.1819 47.621 36.5498 47.9294C35.9176 48.2492 34.9062 48.6833 34.3085 48.9117C33.7108 49.1402 32.7454 49.46 32.1822 49.6199C31.619 49.7799 30.6535 50.0083 30.0559 50.134C29.4582 50.2482 28.3203 50.4081 27.5273 50.4881C26.6652 50.568 25.4009 50.5909 24.3665 50.5566C23.424 50.5109 22.1023 50.3967 21.4356 50.2939C20.769 50.2025 19.6656 49.974 18.9645 49.7913C18.2634 49.6199 17.183 49.2773 16.5508 49.0488C15.9187 48.8204 14.8843 48.3749 14.2521 48.0779C13.62 47.7695 12.666 47.2555 12.1258 46.9356C11.5856 46.6044 10.6546 45.9761 10.0569 45.5306C9.45927 45.0852 8.26393 44.0229 7.40191 43.1776C6.51689 42.3095 5.425 41.0758 4.89629 40.3676C4.39057 39.6708 3.64348 38.5514 3.2527 37.8546C2.85042 37.1693 2.25275 35.9585 1.90794 35.1703C1.57463 34.3821 1.11488 33.1257 0.907998 32.3718C0.689618 31.6179 0.390784 30.4071 0.25286 29.6874C0.0459746 28.5452 0.0114936 27.9626 0 25.3468C0 22.7082 0.0344809 22.1371 0.25286 20.9491C0.390784 20.1952 0.643644 19.1101 0.804555 18.5504C0.965466 17.9907 1.2643 17.0883 1.4482 16.5514C1.64359 16.0145 2.12632 14.918 2.5286 14.0955C2.93088 13.2845 3.609 12.0737 4.04576 11.4112C4.48252 10.7487 5.11467 9.88058 5.44799 9.46937C5.76981 9.05815 6.57436 8.19003 7.21801 7.53894C7.86165 6.88785 8.8616 5.97404 9.42479 5.52856C9.99947 5.07165 10.9534 4.37487 11.5511 3.99792C12.1488 3.60955 13.3096 2.95846 14.1372 2.55867C14.9647 2.15888 16.1716 1.64486 16.8382 1.41641C17.5048 1.18795 18.6427 0.856698 19.3668 0.673936C20.0909 0.502596 21.1828 0.296989 21.7805 0.228453C22.3781 0.159917 23.0218 0.0799585 23.2172 0.0571132C23.4125 0.0456906 24.2631 0.0114226 25.1136 0V0ZM23.3436 12.6334C23.1022 12.8048 22.7459 13.216 22.562 13.5244C22.3551 13.9014 22.2057 14.3354 22.1597 14.7809C22.1138 15.2606 22.1482 15.6719 22.2862 16.1288C22.4011 16.5514 22.6195 16.9512 22.9068 17.2596C23.1367 17.5109 23.5964 17.8536 23.9068 17.9907C24.3435 18.1963 24.6768 18.2648 25.286 18.2648C25.8492 18.2648 26.2515 18.1848 26.6078 18.0249C26.8951 17.8993 27.2744 17.6594 27.4468 17.4881C27.6307 17.3167 27.9181 16.9284 28.079 16.6085C28.3088 16.163 28.3778 15.866 28.3778 15.2378C28.3778 14.8037 28.3088 14.2326 28.2169 13.9813C28.1364 13.73 27.8491 13.296 27.5962 13.0218C27.3319 12.7477 26.9181 12.4278 26.6652 12.3136C26.4124 12.1994 25.9182 12.0852 25.5734 12.0509C25.1826 12.0052 24.7228 12.0509 24.3665 12.1537C24.0562 12.2336 23.585 12.4507 23.3436 12.6334ZM22.6999 37.9117H27.7571V22.7196H22.6999V37.9117Z" fill="#171765"/>
</svg>
