<svg width="40" height="40" viewBox="0 0 40 40" fill="none" xmlns="http://www.w3.org/2000/svg">
<path fill-rule="evenodd" clip-rule="evenodd" d="M33.0696 4.78527L35.9401 7.65611C36.6956 8.41166 36.6956 9.64769 35.9401 10.4032L33.6285 12.7148C34.2662 13.9056 34.7529 15.1892 35.0624 16.5404H38.0569C39.1256 16.5404 40 17.4148 40 18.4832V22.5429C40 23.6116 39.1256 24.4859 38.0569 24.4859H34.789C34.3883 25.8086 33.815 27.0563 33.095 28.2028L35.2148 30.322C35.9703 31.0782 35.9703 32.3142 35.2148 33.0695L32.3443 35.9403C31.5888 36.6955 30.3524 36.6955 29.5972 35.9403L27.2854 33.6284C26.0949 34.2664 24.8111 34.7534 23.4595 35.0627V38.0572C23.4595 39.1256 22.5855 40 21.5168 40H17.4575C16.3888 40 15.5144 39.1256 15.5144 38.0572V34.7892C14.1918 34.3882 12.9441 33.8149 11.7979 33.0949L9.67846 35.2147C8.92227 35.9703 7.68626 35.9703 6.93072 35.2147L4.06025 32.3442C3.30471 31.5886 3.30471 30.3526 4.06025 29.5971L6.37212 27.2852C5.73409 26.0947 5.24711 24.8111 4.93819 23.4599H1.94272C0.874356 23.4599 0 22.5858 0 21.5171V17.4574C0 16.3887 0.874356 15.5147 1.94272 15.5147H5.21065C5.6117 14.1921 6.18494 12.9443 6.90468 11.7978L4.78519 9.67862C4.02965 8.92274 4.02965 7.68638 4.78519 6.93116L7.65598 4.06032C8.41152 3.30477 9.64753 3.30477 10.4031 4.06032L12.7146 6.3719C13.9054 5.73386 15.1889 5.24687 16.5405 4.93762V1.94308C16.5405 0.87437 17.4148 0 18.4832 0H22.5428C23.6112 0 24.4855 0.87437 24.4855 1.94308V5.21009C25.8085 5.61081 27.0565 6.18407 28.2037 6.90414L30.3218 4.78527C31.078 4.02972 32.314 4.02972 33.0696 4.78527ZM20.0002 12.0185C24.4077 12.0185 27.9817 15.5928 27.9817 20.0002C27.9817 24.4072 24.4077 27.9818 20.0002 27.9818C15.5929 27.9818 12.0186 24.4075 12.0186 20.0002C12.0186 15.5928 15.5929 12.0185 20.0002 12.0185Z" fill="black"/>
</svg>
