<svg width="90" height="92" viewBox="0 0 90 92" fill="none" xmlns="http://www.w3.org/2000/svg">
<g clip-path="url(#clip0_243_11014)">
<path fill-rule="evenodd" clip-rule="evenodd" d="M23.0147 0.0371585H87.5568V77.1905C87.4437 79.0772 84.9853 79.1221 82.3234 79.0023H22.1098C16.0771 79.5489 18.2262 87.5225 22.1098 87.1032H84.7742V84.3555H90V89.0124C90 89.8067 89.6822 90.5684 89.1165 91.1301C88.5509 91.6917 87.7836 92.0072 86.9837 92.0072H22.3737C13.3247 92.1345 10.346 91.6553 10.346 85.0818V75.5583H3.43863C1.50817 75.5583 0 73.8139 0 71.6726C0 69.5313 1.50817 67.7868 3.43863 67.7868H10.346V61.5876H3.43863C1.50817 61.5876 0 59.8506 0 57.7019C0 55.5531 1.50817 53.8236 3.43863 53.8236H10.346V47.6169H3.43863C1.50817 47.6169 0 45.8799 0 43.7387C0 41.5974 1.50817 39.8529 3.43863 39.8529H10.346V33.6911H3.43863C1.50817 33.6911 0 31.9167 0 29.768C0 27.6192 1.50817 25.8822 3.43863 25.8822H10.346V19.683H3.43863C1.50817 19.683 0 17.9685 0 15.8047C0 13.641 1.50817 11.919 3.43863 11.919H10.346C10.331 1.98377 10.2028 -0.352164 23.0147 0.0371585ZM35.1328 31.3777C34.6728 31.3777 34.2317 31.1962 33.9064 30.8733C33.5811 30.5504 33.3984 30.1124 33.3984 29.6556C33.3984 29.1989 33.5811 28.7609 33.9064 28.438C34.2317 28.1151 34.6728 27.9336 35.1328 27.9336H60.6284C61.0884 27.9336 61.5295 28.1151 61.8548 28.438C62.1801 28.7609 62.3628 29.1989 62.3628 29.6556C62.3628 30.1124 62.1801 30.5504 61.8548 30.8733C61.5295 31.1962 61.0884 31.3777 60.6284 31.3777H35.1328ZM35.1328 22.3034C34.6916 22.2746 34.278 22.0802 33.9758 21.7597C33.6736 21.4393 33.5054 21.0167 33.5054 20.5777C33.5054 20.1387 33.6736 19.7161 33.9758 19.3956C34.278 19.0752 34.6916 18.8808 35.1328 18.8519H65.2057C65.4436 18.8364 65.6822 18.8695 65.9066 18.9491C66.1311 19.0288 66.3368 19.1534 66.5108 19.3152C66.6848 19.477 66.8236 19.6725 66.9184 19.8896C67.0132 20.1068 67.0622 20.341 67.0622 20.5777C67.0622 20.8144 67.0132 21.0486 66.9184 21.2657C66.8236 21.4829 66.6848 21.6784 66.5108 21.8402C66.3368 22.002 66.1311 22.1266 65.9066 22.2062C65.6822 22.2859 65.4436 22.319 65.2057 22.3034H35.1328ZM30.6837 11.2302H69.6623C70.3271 11.2341 70.9635 11.4981 71.4336 11.9648C71.9036 12.4315 72.1695 13.0633 72.1734 13.7234V36.5437C72.1676 37.2038 71.9014 37.8353 71.4319 38.3028C70.9625 38.7703 70.3272 39.0365 69.6623 39.0443H30.6837C30.0176 39.0404 29.3801 38.7754 28.9098 38.3071C28.4395 37.8388 28.1746 37.205 28.1726 36.5437V13.6859C28.1844 13.0318 28.454 12.4084 28.9234 11.9493C29.3928 11.4902 30.0248 11.232 30.6837 11.2302Z" fill="white"/>
</g>
<defs>
<clipPath id="clip0_243_11014">
<rect width="90" height="92" fill="white"/>
</clipPath>
</defs>
</svg>
